<svg id="Laag_1" data-name="Laag 1" xmlns="http://www.w3.org/2000/svg" viewBox="0 0 640 480"><defs><style>.cls-1{fill:#fcb913;}.cls-1,.cls-2,.cls-3{fill-rule:evenodd;}.cls-2{fill:#20baac;}.cls-3{fill:#d6264d;}</style></defs><title>Tekengebied 1</title><g id="Symbol"><g id="Shape_1" data-name="Shape 1"><polygon class="cls-1" points="319.67 312.86 268.7 342.29 268.7 226.72 247.85 214.67 247.85 378.41 340.53 324.9 319.67 312.86"/></g><g id="Shape_1_copy_3" data-name="Shape 1 copy 3"><path class="cls-1" d="M395.2,293.34l19-11-19-11Zm-28.26,14.17V285.57l-19,11ZM421.61,254l19,11V243Z"/></g><g id="Shape_1_copy" data-name="Shape 1 copy"><polygon class="cls-2" points="198.73 129.6 198.73 236.62 219.58 224.58 219.58 165.72 319.67 223.51 340.53 211.47 198.73 129.6"/></g><g id="Shape_1_copy_4" data-name="Shape 1 copy 4"><path class="cls-2" d="M219.58,364.23V342.29l-19,11Zm-20.85-64.48v21.94l19-11Zm1.85-31.57,19,11v-22Z"/></g><g id="Shape_1_copy_2" data-name="Shape 1 copy 2"><path class="cls-3" d="M244.14,123.18V101.24l-19,11Zm54.68,31.57,19,11V143.78Zm-26.41-17.39,19-11-19-11Z"/></g><g id="Shape_1_copy_5" data-name="Shape 1 copy 5"><polygon class="cls-3" points="346.08 157.96 346.08 182.04 397.05 211.47 296.96 269.25 296.96 293.33 438.76 211.47 346.08 157.96"/></g></g></svg>