<svg xmlns="http://www.w3.org/2000/svg" viewBox="0 0 100 100">
  <path d="M47.125 15.228516C42.501356 15.228516 38.679205 19.15718 38.087891 24.228516L23 24.228516C22.448 24.228516 22 24.675516 22 25.228516L22 74.636719C22 79.925719 26.706187 84.228516 32.492188 84.228516L66.507812 84.228516C72.293813 84.228516 77 79.924766 77 74.634766L77 25.228516C77 24.675516 76.552 24.228516 76 24.228516L61.912109 24.228516C61.320795 19.15718 57.498644 15.228516 52.875 15.228516L47.125 15.228516 z M 47.125 16.228516L52.875 16.228516C56.951455 16.228516 60.325578 19.711441 60.902344 24.228516L39.097656 24.228516C39.674422 19.711441 43.048545 16.228516 47.125 16.228516 z M 24 26.228516L38 26.228516L38 30.228516L24 30.228516L24 26.228516 z M 39 26.228516L61 26.228516L61 30.228516L39 30.228516L39 26.228516 z M 62 26.228516L75.001953 26.228516L75.001953 30.228516L74.5 30.228516C74.224 30.228516 74 30.452516 74 30.728516C74 31.004516 74.224 31.228516 74.5 31.228516L75.001953 31.228516L75.001953 74.634766C75.001953 78.821766 71.190812 82.228516 66.507812 82.228516L32.492188 82.228516C27.809187 82.228516 24 78.821766 24 74.634766L24 31.228516L38 31.228516L38 35.279297C36.307954 35.524336 35 36.969627 35 38.728516C35 40.658516 36.57 42.228516 38.5 42.228516C40.43 42.228516 42 40.658516 42 38.728516C42 36.969627 40.692046 35.524336 39 35.279297L39 31.228516L61 31.228516L61 35.279297C59.307954 35.524336 58 36.969627 58 38.728516C58 40.658516 59.57 42.228516 61.5 42.228516C63.43 42.228516 65 40.658516 65 38.728516C65 36.969627 63.692046 35.524336 62 35.279297L62 31.228516L65.5 31.228516C65.776 31.228516 66 31.004516 66 30.728516C66 30.452516 65.776 30.228516 65.5 30.228516L62 30.228516L62 26.228516 z M 67.5 30.228516C67.224 30.228516 67 30.452516 67 30.728516C67 31.004516 67.224 31.228516 67.5 31.228516L70.5 31.228516C70.776 31.228516 71 31.004516 71 30.728516C71 30.452516 70.776 30.228516 70.5 30.228516L67.5 30.228516 z M 37.996094 36.279297C37.997341 36.279041 37.998752 36.279551 38 36.279297L38 38.728516C38 39.004516 38.224 39.228516 38.5 39.228516C38.776 39.228516 39 39.004516 39 38.728516L39 36.279297C40.139769 36.511269 41 37.520568 41 38.728516C41 40.107516 39.878 41.228516 38.5 41.228516C37.122 41.228516 36 40.107516 36 38.728516C36 37.521891 36.858184 36.512717 37.996094 36.279297 z M 60.996094 36.279297C60.997341 36.279041 60.998752 36.279551 61 36.279297L61 38.728516C61 39.004516 61.224 39.228516 61.5 39.228516C61.776 39.228516 62 39.004516 62 38.728516L62 36.279297C63.139769 36.511269 64 37.520568 64 38.728516C64 40.107516 62.878 41.228516 61.5 41.228516C60.122 41.228516 59 40.107516 59 38.728516C59 37.521891 59.858184 36.512717 60.996094 36.279297 z M 27.5 71.228516C27.224 71.228516 27 71.452516 27 71.728516C27 72.004516 27.224 72.228516 27.5 72.228516L70.5 72.228516C70.776 72.228516 71 72.004516 71 71.728516C71 71.452516 70.776 71.228516 70.5 71.228516L27.5 71.228516 z" fill="#000000" />
</svg>